<?xml version="1.0" standalone="no"?>
<!DOCTYPE svg PUBLIC "-//W3C//DTD SVG 20010904//EN"
 "http://www.w3.org/TR/2001/REC-SVG-20010904/DTD/svg10.dtd">
<svg version="1.0" xmlns="http://www.w3.org/2000/svg"
 width="838.000000pt" height="540.000000pt" viewBox="0 0 838.000000 540.000000"
 preserveAspectRatio="xMidYMid meet">

<g transform="translate(0.000000,540.000000) scale(0.100000,-0.100000)"
fill="#000000" stroke="none">
<path d="M6700 5086 l0 -116 58 0 c79 0 222 -31 317 -69 373 -150 629 -493
661 -885 l7 -86 108 0 109 0 0 41 c0 138 -61 382 -131 521 -84 169 -232 347
-383 459 -178 133 -431 229 -649 245 l-97 7 0 -117z"/>
<path d="M3619 5055 c-590 -96 -1076 -452 -1344 -985 -131 -261 -185 -501
-185 -825 l0 -177 -22 6 c-179 52 -241 61 -458 61 -173 0 -232 -4 -300 -19
-284 -62 -526 -189 -730 -383 -331 -315 -502 -765 -461 -1209 34 -356 172
-659 416 -913 197 -205 447 -348 733 -419 l107 -27 2785 -2 c3090 -4 2857 -8
3070 63 194 65 350 165 505 325 385 397 474 976 226 1484 -154 316 -404 539
-720 645 -119 40 -125 39 -140 -12 -18 -59 -102 -222 -154 -296 -59 -85 -149
-184 -219 -243 l-59 -49 109 0 c203 0 350 -58 483 -190 132 -132 197 -301 185
-483 -15 -227 -145 -421 -349 -522 -165 -82 77 -76 -2932 -73 l-2680 3 -80 23
c-254 71 -433 219 -549 449 -62 124 -80 208 -80 363 0 110 4 150 22 213 26 93
78 199 137 282 173 244 502 381 793 331 242 -42 424 -162 599 -396 162 -216
338 -345 548 -401 65 -18 108 -22 235 -22 207 0 334 29 479 110 92 51 217 178
264 270 l37 72 -57 5 c-328 34 -563 143 -770 359 -43 45 -98 110 -120 142 -87
129 -156 300 -184 455 -17 96 -17 294 0 390 84 473 447 844 918 937 127 25
328 22 460 -6 252 -53 496 -174 694 -345 l76 -65 54 55 c108 110 294 233 432
284 37 14 67 28 67 31 0 13 -231 229 -307 287 -251 190 -562 331 -878 398
-115 24 -156 27 -350 30 -154 2 -246 -1 -306 -11z"/>
<path d="M6700 4652 l0 -90 58 -7 c80 -9 196 -50 267 -93 165 -100 294 -314
295 -489 l0 -43 91 0 91 0 -7 73 c-39 391 -338 690 -732 733 l-63 7 0 -91z"/>
<path d="M6700 4335 l0 -42 58 -12 c148 -29 272 -158 289 -301 l6 -50 38 0 39
0 0 45 c0 24 -11 73 -23 108 -56 155 -189 264 -346 285 l-61 9 0 -42z"/>
<path d="M5656 4138 c-11 -16 -16 -46 -16 -100 0 -51 -4 -78 -11 -78 -6 0 -52
-16 -101 -36 l-90 -37 -52 52 c-42 42 -58 51 -86 51 -32 0 -48 -13 -162 -127
-70 -71 -131 -139 -136 -153 -13 -35 1 -67 55 -122 l46 -46 -37 -85 c-20 -46
-36 -89 -36 -96 0 -7 -27 -11 -80 -11 -123 0 -120 5 -120 -239 l0 -200 26 -20
c22 -17 41 -21 100 -21 l72 0 12 -37 c7 -21 24 -64 38 -96 l25 -58 -51 -52
c-43 -43 -52 -59 -52 -87 0 -32 13 -49 138 -173 164 -164 165 -164 250 -83 54
52 58 54 82 41 14 -8 58 -26 98 -41 l72 -27 0 -77 c0 -67 3 -79 23 -98 22 -21
32 -22 215 -22 236 0 232 -2 232 119 l0 78 73 27 c39 15 83 33 97 41 24 13 28
11 82 -41 85 -81 87 -81 251 84 123 123 137 141 137 172 0 28 -10 44 -52 87
l-51 52 25 58 c14 32 31 75 38 96 l12 37 77 0 c68 0 80 3 99 23 21 22 22 32
22 218 0 244 2 239 -111 239 l-80 0 -15 38 c-8 20 -26 63 -41 94 l-26 57 51
55 c44 46 52 61 52 92 0 34 -10 48 -132 171 -120 120 -135 133 -167 133 -29 0
-45 -9 -87 -51 l-52 -51 -98 39 -99 40 -5 80 c-3 46 -11 87 -19 97 -12 14 -40
16 -217 16 -198 0 -203 0 -218 -22z m385 -552 c203 -71 339 -259 339 -471 0
-142 -46 -251 -150 -355 -101 -102 -214 -149 -355 -150 -137 0 -253 49 -356
150 -284 280 -141 756 254 846 80 18 181 10 268 -20z"/>
</g>
</svg>
